<?xml version="1.0" encoding="utf-8"?>
<!-- Generator: Adobe Illustrator 26.0.3, SVG Export Plug-In . SVG Version: 6.00 Build 0)  -->
<svg version="1.0" id="katman_1" xmlns="http://www.w3.org/2000/svg" xmlns:xlink="http://www.w3.org/1999/xlink" x="0px" y="0px"
	 viewBox="0 0 600 450" style="enable-background:new 0 0 600 450;" xml:space="preserve">
<style type="text/css">
	.st0{fill:#3455A2;}
	.st1{fill:#70B8E7;}
	.st2{fill:#1D4395;}
	.st3{fill:#42A8DF;}
</style>
<path class="st0" d="M396.5,320.4c-6-0.1-12,1.6-17,4.9c-5.1,3.3-9,8-11.4,13.6c-2.4,5.6-3,11.7-1.9,17.6c1.1,5.9,4,11.4,8.2,15.7
	c4.2,4.3,9.7,7.2,15.6,8.5c5.9,1.2,12.1,0.6,17.7-1.7c5.6-2.3,10.4-6.2,13.7-11.2c3.4-5,5.2-10.9,5.2-17c0-8-3.2-15.7-8.8-21.4
	C412.2,323.7,404.5,320.5,396.5,320.4z M396.5,368.2c-2.4,0.1-4.8-0.2-7-1.1c-2.2-0.8-4.3-2.1-6-3.7c-1.7-1.6-3.1-3.6-4.1-5.8
	c-0.9-2.2-1.4-4.6-1.4-6.9c0-2.4,0.5-4.7,1.4-6.9c0.9-2.2,2.3-4.2,4.1-5.8c1.7-1.6,3.8-2.9,6-3.7c2.2-0.8,4.6-1.2,7-1.1
	c4.5,0.2,8.7,2.2,11.8,5.5c3.1,3.3,4.8,7.6,4.8,12.1c0,4.5-1.7,8.8-4.8,12.1C405.2,366,401,368,396.5,368.2z"/>
<path class="st0" d="M355,320.8c-0.2-0.1-0.4-0.2-0.6-0.2c-0.2,0-0.4,0.1-0.6,0.2l-20.7,20.4l-20.4-20.4c-0.2-0.1-0.4-0.2-0.6-0.2
	c-0.2,0-0.4,0.1-0.6,0.2l-8.3,8.6c-0.1,0.2-0.2,0.4-0.2,0.6c0,0.2,0.1,0.4,0.2,0.6l20.4,20.4l-20.7,20.7c-0.1,0.2-0.2,0.4-0.2,0.6
	c0,0.2,0.1,0.4,0.2,0.6l8.2,8.1c0.1,0.1,0.2,0.2,0.3,0.2c0.1,0.1,0.3,0.1,0.4,0.1c0.1,0,0.3,0,0.4-0.1c0.1-0.1,0.2-0.1,0.3-0.2
	l20.4-20.4l20.4,20.4c0.2,0.1,0.4,0.2,0.6,0.2c0.2,0,0.4-0.1,0.6-0.2l8.3-8.3c0.1-0.2,0.2-0.4,0.2-0.6s-0.1-0.4-0.2-0.6l-20.4-20.4
	l20.7-20.4c0.1-0.2,0.2-0.4,0.2-0.6c0-0.2-0.1-0.4-0.2-0.6L355,320.8z"/>
<path class="st0" d="M298.3,347.6c-1.3-15.1-13.9-27.1-29.3-27.2c-4.4,0-8.7,0.9-12.7,2.8c-10.9,5.1-17,15.9-17,27.8
	c0.6,16.1,14.3,29.3,30.4,29.3h16.9c0.9,0,1.7-0.7,1.7-1.7v-9.7c0-0.9-0.7-1.7-1.7-1.7h-17.6c-7.4,0-13.6-5.5-15.9-12.1h43.2
	c1.2,0,2.1-0.9,2.1-2C298.4,351.9,298.3,347.6,298.3,347.6z M284.4,344.5h-31.3c2.6-7.2,9.6-11.8,17.2-11.1
	C276.9,334,282.2,338.5,284.4,344.5z"/>
<path class="st0" d="M201.4,320.4c-5.6,0.1-11,1.9-15.6,5.1v-3.4c0-0.3-0.1-0.5-0.3-0.7c-0.2-0.2-0.5-0.3-0.7-0.3h-10.9
	c-0.3,0-0.5,0.1-0.7,0.3c-0.2,0.2-0.3,0.5-0.3,0.7v27.2c0,0.5,0,0.9,0,1.4v27.8c0,0.4,0.2,0.9,0.5,1.2c0.3,0.3,0.7,0.5,1.2,0.5h9.7
	c0.2,0,0.4,0,0.6-0.1c0.2-0.1,0.4-0.2,0.5-0.4c0.2-0.2,0.3-0.3,0.4-0.5c0.1-0.2,0.1-0.4,0.1-0.6V350c0-2.3,0.5-4.6,1.4-6.8
	c0.9-2.1,2.3-4,4.1-5.6c1.7-1.6,3.8-2.8,6-3.5c2.2-0.7,4.6-1,6.9-0.8c4.2,0.4,8.1,2.4,11,5.6c2.8,3.2,4.4,7.3,4.3,11.5v28
	c0,0.2,0,0.4,0.1,0.6c0.1,0.2,0.2,0.4,0.4,0.5c0.2,0.2,0.3,0.3,0.5,0.4c0.2,0.1,0.4,0.1,0.6,0.1h9.6c0.4,0,0.9-0.2,1.2-0.5
	c0.3-0.3,0.5-0.7,0.5-1.2V350c0-4-0.8-8-2.4-11.7c-1.6-3.7-3.9-7-6.8-9.8c-2.9-2.8-6.3-4.9-10.1-6.3
	C209.4,320.9,205.4,320.2,201.4,320.4L201.4,320.4z"/>
<path class="st1" d="M173.1,105.9v143.4c0,0.9,0.2,1.8,0.6,2.5c0.4,0.8,1.1,1.4,1.8,1.9l60.9,35.1V142.4L173.1,105.9z"/>
<path class="st2" d="M363.1,69.3l61,35.1c0.7,0.4,1.3,1.1,1.8,1.8c0.4,0.7,0.7,1.6,0.7,2.4v143.4l-63.4-36.5V69.3z"/>
<path class="st3" d="M236.4,288.8l63.3-36.6l-63.3-36.6V288.8z"/>
<path class="st3" d="M238.9,70.8l124.3,71.7v73.2L173.1,105.9L234,70.8c0.7-0.5,1.6-0.7,2.4-0.7S238.1,70.3,238.9,70.8L238.9,70.8z"
	/>
<path class="st0" d="M363.1,69.3l-63.4,36.6l63.4,36.6V69.3z"/>
<path class="st0" d="M426.5,252.2l-60.9,35.1c-0.8,0.4-1.7,0.7-2.6,0.7c-0.9,0-1.8-0.2-2.6-0.7l-124.2-71.7v-73.3L426.5,252.2z"/>
</svg>
